<svg width="467" height="490" viewBox="0 0 467 490" fill="none" xmlns="http://www.w3.org/2000/svg">
<path d="M376.6 234.5L376.145 233.61L374.065 234.672L376.27 235.444L376.6 234.5ZM442.4 280.7L441.602 281.303L441.609 281.311L442.4 280.7ZM414.4 455L414.96 455.829L414.96 455.829L414.4 455ZM2.08616e-07 490H-1V491H2.08616e-07V490ZM2.08616e-07 -3.33786e-05V-1.00003H-1V-3.33786e-05H2.08616e-07ZM393.4 35L392.819 35.8137L392.827 35.8192L393.4 35ZM424.9 191.1L424.052 190.57L424.048 190.576L424.9 191.1ZM137.2 100.1V99.1H136.2V100.1H137.2ZM137.2 194.6H136.2V195.6H137.2V194.6ZM137.2 290.5V289.5H136.2V290.5H137.2ZM137.2 389.9H136.2V390.9H137.2V389.9ZM376.27 235.444C404.108 245.187 425.869 260.48 441.602 281.303L443.198 280.097C427.198 258.92 405.092 243.413 376.93 233.556L376.27 235.444ZM441.609 281.311C457.322 301.647 465.2 326.39 465.2 355.6H467.2C467.2 326.01 459.211 300.82 443.191 280.089L441.609 281.311ZM465.2 355.6C465.2 398.213 448.089 431.031 413.84 454.171L414.96 455.829C449.778 432.303 467.2 398.853 467.2 355.6H465.2ZM413.84 454.171C379.542 477.346 329.838 489 264.6 489V491C330.028 491 380.192 479.321 414.96 455.829L413.84 454.171ZM264.6 489H2.08616e-07V491H264.6V489ZM1 490V-3.33786e-05H-1V490H1ZM2.08616e-07 0.999967H250.6V-1.00003H2.08616e-07V0.999967ZM250.6 0.999967C313.033 0.999967 360.392 12.6521 392.819 35.8137L393.981 34.1862C361.074 10.6812 313.234 -1.00003 250.6 -1.00003V0.999967ZM392.827 35.8192C425.231 58.5026 441.4 89.233 441.4 128.1H443.4C443.4 88.567 426.902 57.2307 393.973 34.1807L392.827 35.8192ZM441.4 128.1C441.4 151.258 435.613 172.072 424.052 190.57L425.748 191.63C437.52 172.795 443.4 151.609 443.4 128.1H441.4ZM424.048 190.576C412.954 208.604 396.999 222.951 376.145 233.61L377.055 235.39C398.201 224.583 414.446 209.996 425.752 191.624L424.048 190.576ZM136.2 100.1V194.6H138.2V100.1H136.2ZM137.2 195.6H232.4V193.6H137.2V195.6ZM232.4 195.6C255.815 195.6 273.553 191.625 285.462 183.527C297.44 175.382 303.4 163.15 303.4 147H301.4C301.4 162.584 295.693 174.151 284.338 181.873C272.913 189.642 255.651 193.6 232.4 193.6V195.6ZM303.4 147C303.4 131.077 297.435 119.02 285.457 110.994C273.549 103.016 255.814 99.1 232.4 99.1V101.1C255.653 101.1 272.918 105.001 284.343 112.656C295.698 120.263 301.4 131.656 301.4 147H303.4ZM232.4 99.1H137.2V101.1H232.4V99.1ZM253.4 390.9C277.749 390.9 296.188 386.75 308.564 378.301C321.008 369.805 327.2 357.048 327.2 340.2H325.2C325.2 356.485 319.258 368.578 307.436 376.649C295.546 384.767 277.584 388.9 253.4 388.9V390.9ZM327.2 340.2C327.2 323.352 321.008 310.595 308.564 302.099C296.188 293.65 277.749 289.5 253.4 289.5V291.5C277.584 291.5 295.546 295.633 307.436 303.751C319.258 311.822 325.2 323.915 325.2 340.2H327.2ZM253.4 289.5H137.2V291.5H253.4V289.5ZM136.2 290.5V389.9H138.2V290.5H136.2ZM137.2 390.9H253.4V388.9H137.2V390.9Z" fill="black" fill-opacity="0.1"/>
</svg>
