<svg width="481" height="510" viewBox="0 0 481 510" fill="none" xmlns="http://www.w3.org/2000/svg">
<path d="M131.7 477.6L131.225 478.48L131.237 478.486L131.7 477.6ZM35.8 386.6L36.6566 386.084L36.6566 386.084L35.8 386.6ZM35.8 123.4L34.9434 122.884L34.9434 122.884L35.8 123.4ZM131.7 33.1L132.167 33.984L132.171 33.982L131.7 33.1ZM391.4 24L390.996 24.9148L390.996 24.9148L391.4 24ZM481 92.6L481.671 93.3415L482.367 92.7114L481.782 91.9768L481 92.6ZM392.8 172.4L392.03 173.038L392.697 173.842L393.471 173.142L392.8 172.4ZM205.9 132.5L205.414 131.626L205.406 131.631L205.9 132.5ZM157.6 182.2L156.721 181.722L156.718 181.729L157.6 182.2ZM157.6 328.5L156.713 328.963L156.719 328.974L156.726 328.986L157.6 328.5ZM205.9 377.5L205.406 378.369L205.414 378.374L205.9 377.5ZM392.8 337.6L393.471 336.858L392.697 336.158L392.03 336.962L392.8 337.6ZM481 417.4L481.782 418.023L482.367 417.289L481.671 416.658L481 417.4ZM391.4 486L390.996 485.085L390.996 485.085L391.4 486ZM270.3 508.8C219.11 508.8 173.072 498.098 132.163 476.714L131.237 478.486C172.461 500.035 218.823 510.8 270.3 510.8V508.8ZM132.175 476.72C91.7293 454.87 59.8957 424.661 36.6566 386.084L34.9434 387.116C58.371 426.006 90.4708 456.463 131.225 478.48L132.175 476.72ZM36.6566 386.084C13.4249 347.519 1.8 303.834 1.8 255H-0.199999C-0.199999 304.166 11.5084 348.214 34.9434 387.116L36.6566 386.084ZM1.8 255C1.8 206.166 13.4249 162.481 36.6566 123.916L34.9434 122.884C11.5084 161.786 -0.199999 205.834 -0.199999 255H1.8ZM36.6566 123.916C59.8945 85.341 91.7255 55.3671 132.167 33.984L131.233 32.2159C90.4745 53.7662 58.3721 83.9923 34.9434 122.884L36.6566 123.916ZM132.171 33.982C173.078 12.1338 219.114 1.19997 270.3 1.19997V-0.800032C218.82 -0.800032 172.455 10.1994 131.229 32.2179L132.171 33.982ZM270.3 1.19997C314.98 1.19997 355.207 9.11166 390.996 24.9148L391.804 23.0852C355.727 7.15496 315.22 -0.800032 270.3 -0.800032V1.19997ZM390.996 24.9148C426.786 40.7181 456.522 63.4865 480.218 93.2232L481.782 91.9768C457.878 61.9801 427.881 39.0152 391.804 23.0852L390.996 24.9148ZM480.329 91.8585L392.129 171.658L393.471 173.142L481.671 93.3415L480.329 91.8585ZM393.57 171.762C361.668 133.291 322.896 114 277.3 114V116C322.237 116 360.466 134.975 392.03 173.038L393.57 171.762ZM277.3 114C250.549 114 226.578 119.868 205.414 131.626L206.386 133.374C227.222 121.799 250.851 116 277.3 116V114ZM205.406 131.631C184.705 143.393 168.474 160.098 156.721 181.722L158.479 182.677C170.059 161.369 186.029 144.941 206.394 133.369L205.406 131.631ZM156.718 181.729C145.429 202.895 139.8 227.328 139.8 255H141.8C141.8 227.605 147.371 203.505 158.482 182.671L156.718 181.729ZM139.8 255C139.8 282.672 145.429 307.335 156.713 328.963L158.487 328.037C147.371 306.732 141.8 282.395 141.8 255H139.8ZM156.726 328.986C168.48 350.143 184.71 366.611 205.406 378.369L206.394 376.631C186.023 365.056 170.053 348.857 158.474 328.014L156.726 328.986ZM205.414 378.374C226.578 390.132 250.549 396 277.3 396V394C250.851 394 227.222 388.201 206.386 376.626L205.414 378.374ZM277.3 396C322.896 396 361.668 376.709 393.57 338.238L392.03 336.962C360.466 375.025 322.237 394 277.3 394V396ZM392.129 338.342L480.329 418.142L481.671 416.658L393.471 336.858L392.129 338.342ZM480.218 416.777C456.522 446.513 426.786 469.282 390.996 485.085L391.804 486.915C427.881 470.985 457.878 448.02 481.782 418.023L480.218 416.777ZM390.996 485.085C355.207 500.888 314.98 508.8 270.3 508.8V510.8C315.22 510.8 355.727 502.845 391.804 486.915L390.996 485.085Z" fill="black" fill-opacity="0.1"/>
</svg>
