<svg width="442" height="490" viewBox="0 0 442 490" fill="none" xmlns="http://www.w3.org/2000/svg">
<path d="M339.5 22.4L339.084 23.3095L339.095 23.3143L339.5 22.4ZM415.1 85.4L414.259 85.9415L414.264 85.948L415.1 85.4ZM415.1 277.2L415.936 277.748L415.936 277.748L415.1 277.2ZM339.5 340.2L339.905 341.114L339.916 341.109L339.5 340.2ZM138.6 361.9V360.9H137.6V361.9H138.6ZM138.6 490V491H139.6V490H138.6ZM2.08616e-07 490H-1V491H2.08616e-07V490ZM2.08616e-07 -3.33786e-05V-1.00003H-1V-3.33786e-05H2.08616e-07ZM280 234.5L280.643 235.266L280.65 235.26L280.657 235.254L280 234.5ZM138.6 109.2V108.2H137.6V109.2H138.6ZM138.6 252.7H137.6V253.7H138.6V252.7ZM224 0.999967C268.223 0.999967 306.575 8.44803 339.084 23.3094L339.916 21.4905C307.092 6.48524 268.444 -1.00003 224 -1.00003V0.999967ZM339.095 23.3143C371.6 37.7094 396.641 58.5872 414.259 85.9415L415.941 84.8585C398.092 57.1461 372.733 36.0239 339.905 21.4856L339.095 23.3143ZM414.264 85.948C431.876 112.83 440.7 144.6 440.7 181.3H442.7C442.7 144.267 433.791 112.103 415.936 84.852L414.264 85.948ZM440.7 181.3C440.7 218 431.876 249.77 414.264 276.652L415.936 277.748C433.791 250.497 442.7 218.333 442.7 181.3H440.7ZM414.264 276.652C396.645 303.544 371.599 324.427 339.084 339.291L339.916 341.109C372.734 326.107 398.089 304.989 415.936 277.748L414.264 276.652ZM339.095 339.286C306.583 353.684 268.227 360.9 224 360.9V362.9C268.44 362.9 307.084 355.649 339.905 341.114L339.095 339.286ZM224 360.9H138.6V362.9H224V360.9ZM137.6 361.9V490H139.6V361.9H137.6ZM138.6 489H2.08616e-07V491H138.6V489ZM1 490V-3.33786e-05H-1V490H1ZM2.08616e-07 0.999967H224V-1.00003H2.08616e-07V0.999967ZM215.6 253.7C244.187 253.7 265.924 247.611 280.643 235.266L279.357 233.734C265.143 245.656 243.946 251.7 215.6 251.7V253.7ZM280.657 235.254C295.384 222.428 302.7 204.395 302.7 181.3H300.7C300.7 203.938 293.55 221.372 279.343 233.746L280.657 235.254ZM302.7 181.3C302.7 158.205 295.384 140.172 280.657 127.346L279.343 128.854C293.55 141.228 300.7 158.662 300.7 181.3H302.7ZM280.657 127.346C265.938 114.526 244.194 108.2 215.6 108.2V110.2C243.939 110.2 265.129 116.474 279.343 128.854L280.657 127.346ZM215.6 108.2H138.6V110.2H215.6V108.2ZM137.6 109.2V252.7H139.6V109.2H137.6ZM138.6 253.7H215.6V251.7H138.6V253.7Z" fill="black" fill-opacity="0.1"/>
</svg>
