<svg width="425" height="510" viewBox="0 0 425 510" fill="none" xmlns="http://www.w3.org/2000/svg">
<path d="M91.7 495.1L91.9539 494.133L91.9539 494.133L91.7 495.1ZM0.700001 455.9L-0.213552 455.493L-0.548866 456.246L0.126539 456.719L0.700001 455.9ZM46.2 353.7L46.7506 352.865L45.7661 352.216L45.2864 353.293L46.2 353.7ZM122.5 388.7L122.793 387.744L122.793 387.744L122.5 388.7ZM264.6 331.3L264.176 332.205L264.192 332.213L264.209 332.221L264.6 331.3ZM191.8 309.6L192.017 308.624L192.01 308.622L191.8 309.6ZM99.4 284.4L99.0469 285.336L99.0547 285.339L99.0625 285.341L99.4 284.4ZM33.6 78.6L34.4245 79.1658L34.4296 79.1583L33.6 78.6ZM106.4 21.2L106.006 20.2808L106.001 20.2829L106.4 21.2ZM321.3 11.4L321.068 12.3726L321.075 12.3743L321.082 12.3758L321.3 11.4ZM403.9 42.9L404.824 43.2832L405.157 42.4793L404.407 42.038L403.9 42.9ZM361.2 145.8L360.725 146.68L361.699 147.206L362.124 146.183L361.2 145.8ZM165.2 120.6L165.733 121.446L165.744 121.439L165.755 121.432L165.2 120.6ZM168.7 181.5L168.299 182.416L168.299 182.416L168.7 181.5ZM240.8 201.8L241.008 200.822L241.007 200.822L240.8 201.8ZM333.2 227.7L332.841 228.633L332.852 228.637L332.863 228.641L333.2 227.7ZM396.9 271.1L396.151 271.762L396.159 271.771L396.167 271.78L396.9 271.1ZM399.7 431.4L398.876 430.834L398.876 430.834L399.7 431.4ZM326.2 488.8L326.594 489.719L326.605 489.714L326.2 488.8ZM207.2 508.8C167.617 508.8 129.202 503.91 91.9539 494.133L91.4461 496.067C128.865 505.89 167.45 510.8 207.2 510.8V508.8ZM91.9539 494.133C54.697 484.353 24.4822 471.327 1.27346 455.081L0.126539 456.719C23.5845 473.14 54.0363 486.247 91.4461 496.067L91.9539 494.133ZM1.61355 456.307L47.1136 354.107L45.2864 353.293L-0.213552 455.493L1.61355 456.307ZM45.6494 354.535C67.6734 369.061 93.196 380.766 122.207 389.656L122.793 387.744C93.9374 378.901 68.5933 367.272 46.7506 352.865L45.6494 354.535ZM122.207 389.656C151.228 398.55 179.793 403 207.9 403V401C180.007 401 151.639 396.584 122.793 387.744L122.207 389.656ZM207.9 403C234.551 403 254.688 399.674 268.197 392.919C274.966 389.535 280.102 385.274 283.545 380.111C286.991 374.941 288.7 368.925 288.7 362.1H286.7C286.7 368.575 285.084 374.196 281.88 379.002C278.673 383.813 273.834 387.865 267.303 391.131C254.212 397.676 234.449 401 207.9 401V403ZM288.7 362.1C288.7 354.904 286.717 348.622 282.725 343.3C278.742 337.989 272.805 333.695 264.991 330.379L264.209 332.221C271.795 335.439 277.408 339.544 281.125 344.5C284.833 349.444 286.7 355.296 286.7 362.1H288.7ZM265.024 330.395C249.986 323.345 225.629 316.093 192.017 308.624L191.583 310.576C225.171 318.04 249.347 325.255 264.176 332.205L265.024 330.395ZM192.01 308.622C155.17 300.695 124.416 292.306 99.7375 283.459L99.0625 285.341C123.851 294.228 154.697 302.639 191.59 310.578L192.01 308.622ZM99.7531 283.464C75.1742 274.189 54.0763 259.584 36.4493 239.638L34.9507 240.962C52.7904 261.149 74.1592 275.944 99.0469 285.336L99.7531 283.464ZM36.4493 239.638C18.9177 219.799 10.1 192.991 10.1 159.1H8.1C8.1 193.342 17.0156 220.667 34.9507 240.962L36.4493 239.638ZM10.1 159.1C10.1 129.428 18.2096 102.793 34.4245 79.1658L32.7755 78.0341C16.3237 102.007 8.1 129.039 8.1 159.1H10.1ZM34.4296 79.1583C50.6368 55.0791 74.7382 36.0564 106.799 22.1171L106.001 20.2829C73.6618 34.3436 49.2299 53.5875 32.7704 78.0416L34.4296 79.1583ZM106.794 22.1191C139.303 8.18681 179.06 1.19997 226.1 1.19997V-0.800032C178.873 -0.800032 138.831 6.21314 106.006 20.2808L106.794 22.1191ZM226.1 1.19997C258.222 1.19997 289.877 4.92416 321.068 12.3726L321.532 10.4273C290.189 2.94246 258.378 -0.800032 226.1 -0.800032V1.19997ZM321.082 12.3758C352.263 19.3567 379.696 29.8223 403.393 43.7619L404.407 42.038C380.504 27.9776 352.871 17.4433 321.518 10.4241L321.082 12.3758ZM402.976 42.5167L360.276 145.417L362.124 146.183L404.824 43.2832L402.976 42.5167ZM361.675 144.92C314.893 119.658 269.464 107 225.4 107V109C269.069 109 314.174 121.542 360.725 146.68L361.675 144.92ZM225.4 107C197.809 107 177.496 111.201 164.645 119.768L165.755 121.432C178.104 113.199 197.924 109 225.4 109V107ZM164.667 119.754C151.824 127.84 145.3 138.637 145.3 152.1H147.3C147.3 139.43 153.376 129.227 165.733 121.446L164.667 119.754ZM145.3 152.1C145.3 158.838 147.23 164.771 151.105 169.856C154.969 174.928 160.725 179.103 168.299 182.416L169.101 180.584C161.741 177.364 156.298 173.372 152.695 168.644C149.103 163.929 147.3 158.429 147.3 152.1H145.3ZM168.299 182.416C183.331 188.993 207.449 195.776 240.593 202.778L241.007 200.822C207.885 193.824 183.935 187.074 169.101 180.584L168.299 182.416ZM240.592 202.778C277.895 210.705 308.64 219.325 332.841 228.633L333.559 226.767C309.226 217.408 278.371 208.762 241.008 200.822L240.592 202.778ZM332.863 228.641C357.434 237.45 378.527 251.819 396.151 271.762L397.649 270.438C379.807 250.247 358.433 235.683 333.537 226.759L332.863 228.641ZM396.167 271.78C414.152 291.149 423.2 317.714 423.2 351.6H425.2C425.2 317.353 416.048 290.251 397.633 270.42L396.167 271.78ZM423.2 351.6C423.2 380.802 415.092 407.204 398.876 430.834L400.525 431.966C416.974 407.996 425.2 381.198 425.2 351.6H423.2ZM398.876 430.834C382.669 454.449 358.332 473.476 325.795 487.886L326.605 489.714C359.401 475.19 384.064 455.951 400.525 431.966L398.876 430.834ZM325.806 487.881C293.296 501.814 253.772 508.8 207.2 508.8V510.8C253.962 510.8 293.77 503.786 326.594 489.719L325.806 487.881Z" fill="black" fill-opacity="0.1"/>
</svg>
