<svg width="709" height="490" viewBox="0 0 709 490" fill="none" xmlns="http://www.w3.org/2000/svg">
<path d="M806.6 -3.05176e-05L807.551 0.308441L807.976 -1.00003H806.6V-3.05176e-05ZM647.7 490V491H648.427L648.651 490.308L647.7 490ZM499.3 490L498.346 490.3L498.566 491H499.3V490ZM405.5 191.8L406.454 191.5L405.521 188.534L404.55 191.488L405.5 191.8ZM307.5 490V491H308.224L308.45 490.312L307.5 490ZM159.1 490L158.149 490.308L158.373 491H159.1V490ZM0.200001 -3.05176e-05V-1.00003H-1.17555L-0.751233 0.308441L0.200001 -3.05176e-05ZM143 -3.05176e-05L143.954 -0.300858L143.733 -1.00003H143V-3.05176e-05ZM241.7 312.9L240.746 313.201L241.677 316.151L242.649 313.214L241.7 312.9ZM345.3 -3.05176e-05V-1.00003H344.578L344.351 -0.314346L345.3 -3.05176e-05ZM472.7 -3.05176e-05L473.654 -0.298431L473.435 -1.00003H472.7V-3.05176e-05ZM571.4 315.7L570.446 315.998L571.38 318.988L572.351 316.01L571.4 315.7ZM674.3 -3.05176e-05V-1.00003H673.574L673.349 -0.309929L674.3 -3.05176e-05ZM805.649 -0.308502L646.749 489.692L648.651 490.308L807.551 0.308441L805.649 -0.308502ZM647.7 489H499.3V491H647.7V489ZM500.254 489.7L406.454 191.5L404.546 192.1L498.346 490.3L500.254 489.7ZM404.55 191.488L306.55 489.688L308.45 490.312L406.45 192.112L404.55 191.488ZM307.5 489H159.1V491H307.5V489ZM160.051 489.692L1.15123 -0.308502L-0.751233 0.308441L158.149 490.308L160.051 489.692ZM0.200001 0.999969H143V-1.00003H0.200001V0.999969ZM142.046 0.300789L240.746 313.201L242.654 312.599L143.954 -0.300858L142.046 0.300789ZM242.649 313.214L346.249 0.314285L344.351 -0.314346L240.751 312.586L242.649 313.214ZM345.3 0.999969H472.7V-1.00003H345.3V0.999969ZM471.746 0.298363L570.446 315.998L572.354 315.402L473.654 -0.298431L471.746 0.298363ZM572.351 316.01L675.251 0.30986L673.349 -0.309929L570.449 315.39L572.351 316.01ZM674.3 0.999969H806.6V-1.00003H674.3V0.999969Z" fill="black" fill-opacity="0.1"/>
</svg>
